<svg xmlns="http://www.w3.org/2000/svg" width="21.03" height="21.054" viewBox="0 0 21.03 21.054" class="star full">
  <path d="M19.473,10.111a1.552,1.552,0,0,0,.357-1.535,1.427,1.427,0,0,0-1.138-1.019l-4.98-.735a.626.626,0,0,1-.468-.362l-2.128-4.58a1.375,1.375,0,0,0-2.528,0L6.458,6.461a.626.626,0,0,1-.469.362l-4.882.734A1.427,1.427,0,0,0-.031,8.577a1.552,1.552,0,0,0,.357,1.535l3.566,3.565a.688.688,0,0,1,.179.585l-.812,5.034a1.531,1.531,0,0,0,.307,1.214,1.368,1.368,0,0,0,1.738.364L9.561,18.5a.6.6,0,0,1,.579,0L14.4,20.873a1.331,1.331,0,0,0,.656.174,1.382,1.382,0,0,0,1.082-.538,1.531,1.531,0,0,0,.307-1.214l-.813-5.034a.687.687,0,0,1,.179-.585Z" transform="translate(0.616 -0.547)" stroke="#ffb47d" stroke-width="1"/>
</svg>
